<svg xmlns="http://www.w3.org/2000/svg" xmlns:xlink="http://www.w3.org/1999/xlink" style="margin:auto;background:transparent;display:block;z-index:1;position:relative;opacity:0.1;" width="1319" height="668" preserveAspectRatio="xMidYMid" viewBox="0 0 1319 668">
  <g transform="translate(659.5,334) scale(1,1) translate(-659.5,-334)">
    <g transform="translate(1079.2032299732755,-85.70322997327531) scale(100)" opacity="0.80">
      <path d="M5.816790000000001 0 C5.816790000000001 0.8903250000000003 5.688262159845788 2.2560609323756196 5.243099659845788 3.027105 S3.6794390676243816 4.592325408479285 2.908395000000001 5.037487908479285 S0.8903250000000006 6.054210000000001 3.7071344489329496e-16 6.054210000000001 S-2.1373509323756186 5.4826504084792855 -2.908394999999999 5.037487908479286 S-4.797937159845786 3.798149067624383 -5.243099659845786 3.027105000000003 S-5.816790000000001 0.8903250000000009 -5.816790000000001 7.123513254812334e-16 S-5.688262159845788 -2.2560609323756182 -5.243099659845789 -3.027104999999999 S-3.6794390676243838 -4.592325408479285 -2.908395000000003 -5.037487908479285 S-0.8903250000000014 -6.054210000000001 -1.1121403346798847e-15 -6.054210000000001 S2.1373509323756155 -5.482650408479287 2.9083949999999965 -5.037487908479288 S4.797937159845786 -3.7981490676243834 5.243099659845786 -3.0271050000000033 S5.816790000000001 -0.8903250000000017 5.816790000000001 -1.4247026509624669e-15" fill="#0a0c10" stroke-width="10">
        <animateTransform attributeName="transform" type="rotate" dur="7.692307692307692s" repeatCount="indefinite" values="0;60"/>
      </path>
    </g>
    <g transform="translate(1163.1438759679304,-169.64387596793034) scale(100)" opacity="0.60">
      <path d="M6.980148000000001 0 C6.980148000000001 1.0683900000000004 6.8259145918149455 2.7072731188507433 6.291719591814945 3.6325260000000004 S4.415326881149258 5.510790490175141 3.4900740000000012 6.044985490175142 S1.0683900000000008 7.265052000000002 4.44856133871954e-16 7.265052000000002 S-2.564821118850742 6.579180490175142 -3.490073999999999 6.044985490175143 S-5.757524591814944 4.557778881149259 -6.291719591814944 3.632526000000003 S-6.980148000000001 1.0683900000000013 -6.980148000000001 8.5482159057748e-16 S-6.8259145918149455 -2.7072731188507415 -6.291719591814946 -3.6325259999999986 S-4.41532688114926 -5.5107904901751406 -3.4900740000000035 -6.044985490175141 S-1.0683900000000017 -7.265052000000002 -1.3345684016158617e-15 -7.265052000000002 S2.564821118850739 -6.579180490175145 3.490073999999996 -6.044985490175145 S5.757524591814943 -4.55777888114926 6.291719591814943 -3.632526000000004 S6.980148000000001 -1.0683900000000022 6.980148000000001 -1.70964318115496e-15" fill="#A3C2E0" stroke-width="10">
        <animateTransform attributeName="transform" type="rotate" dur="3.846153846153846s" repeatCount="indefinite" values="0;60"/>
      </path>
    </g>
    <g transform="translate(1364.6014263551026,-371.1014263551025) scale(100)" opacity="0.50">
      <path d="M9.7722072 0 C9.7722072 1.4957460000000002 9.556280428540923 3.7901823663910403 8.808407428540923 5.0855364 S6.18145763360896 7.715106686245198 4.886103600000001 8.462979686245198 S1.495746000000001 10.171072800000001 6.227985874207354e-16 10.171072800000001 S-3.590749566391039 9.2108526862452 -4.886103599999998 8.4629796862452 S-8.06053442854092 6.380890433608963 -8.80840742854092 5.085536400000004 S-9.7722072 1.4957460000000014 -9.7722072 1.196750226808472e-15 S-9.556280428540925 -3.790182366391038 -8.808407428540924 -5.085536399999998 S-6.1814576336089635 -7.715106686245197 -4.886103600000005 -8.462979686245198 S-1.495746000000002 -10.171072800000001 -1.8683957622622063e-15 -10.171072800000001 S3.5907495663910343 -9.210852686245202 4.886103599999994 -8.462979686245204 S8.060534428540919 -6.380890433608964 8.808407428540919 -5.085536400000005 S9.7722072 -1.4957460000000027 9.7722072 -2.393500453616944e-15" fill="#3D7AB8"  stroke-width="1000">
        <animateTransform attributeName="transform" type="rotate" dur="2.564102564102564s" repeatCount="indefinite" values="0;60"/>
      </path>
    </g>
  </g>
</svg>
