<svg id="Layer_2" data-name="Layer 2" xmlns="http://www.w3.org/2000/svg" viewBox="0 0 1951.14 1104.05">
  <defs>
    <style>
      .cls-1 {
        stroke-width: 40px;
      }

      .cls-1, .cls-2 {
        fill: none;
        stroke: #6e6f72;
        stroke-miterlimit: 10;
      }

      .cls-2 {
        stroke-linecap: round;
        stroke-width: 31px;
      }

      .cls-3 {
        fill: #606161;
      }

      .cls-3, .cls-4, .cls-5 {
        stroke-width: 0px;
      }

      .cls-4 {
        fill: #fff;
      }

      .cls-5 {
        fill: #6e6f72;
      }
    </style>
    <animateTransform
      attributeName="transform"
      attributeType="XML"
      type="scale"
      values="1 1; 1 1.05; 1 1"
      begin="0s"
      dur="2s"
      repeatCount="indefinite"/>
  </defs>
  <ellipse class="cls-1" cx="915.3" cy="76.91" rx="148.98" ry="56.91"/>
  <line class="cls-1" x1="1064.29" y1="76.91" x2="1064.29" y2="228.68"/>
  <g>
    <circle class="cls-4" cx="567.6" cy="568.83" r="123.98"/>
    <path class="cls-5" d="M567.6,469.84c54.58,0,98.99,44.4,98.99,98.98s-44.4,98.98-98.99,98.98-98.99-44.4-98.99-98.98,44.4-98.98,98.99-98.98M567.6,419.84c-82.28,0-148.99,66.7-148.99,148.98s66.7,148.98,148.99,148.98,148.99-66.7,148.99-148.98-66.7-148.98-148.99-148.98h0Z"/>
  </g>
  <g>
    <path class="cls-4" d="M892.01,930.71c-6.6,0-13.26-.18-19.79-.53-192.37-10.27-344-169.33-345.23-362.11,0-.14,0-.29,0-.43-.02-.65-.01-1.31-.01-1.96v-.57c0-.95,0-1.9.02-2.85v-.2c.06-5.98.27-12.02.62-17.92.77-13.37,2.28-26.77,4.5-39.88,10.88-64.25,39.01-124.6,81.36-174.53,24.75-29.19,53.74-54.21,86.19-74.36,33.01-20.51,68.85-35.51,106.53-44.58,26.9-6.49,54.71-9.9,82.66-10.13.08,0,.16,0,.24,0,.84-.02,1.68-.02,2.53-.02h.78c.84,0,1.68,0,2.53.02.08,0,.17,0,.25,0,14.15.11,28.4,1.05,42.35,2.79,39.84,4.95,78.3,16.38,114.32,33.96,41.65,20.32,78.66,48.05,110,82.42,31.47,34.52,55.71,74.08,72.03,117.59,14.02,37.33,21.75,76.61,22.98,116.76.12,3.52.18,7.09.19,10.99v328.88c-6.91-4.99-14.76-9.77-22.77-13.84-8.33-4.24-17.28-7.93-25.87-10.67-16.37-5.22-34.44-7.99-52.24-7.99-28.09,0-56.01,6.86-80.76,19.84-.32.17-.64.35-.96.53-2.37,1.38-4.72,2.71-7.01,3.96-28.16,15.46-58.16,27.09-89.22,34.59-.1.02-.2.05-.3.08-.94.24-1.89.46-2.84.68-9.55,2.22-19.39,4.09-29.22,5.54-2.71.4-5.42.77-8.31,1.13-8.42,1.05-17.07,1.82-25.7,2.27-6.56.36-13.21.54-19.82.54Z"/>
    <path class="cls-5" d="M892.66,225.64c.61,0,1.21,0,1.82.01.17,0,.33,0,.5,0,13.18.1,26.46.98,39.47,2.6,37.09,4.61,72.9,15.25,106.44,31.62,38.8,18.92,73.27,44.76,102.48,76.79,29.32,32.16,51.9,69.01,67.1,109.55,13.05,34.75,20.25,71.33,21.39,108.73,0,.05,0,.1,0,.15.11,3.15.16,6.45.17,10.06v286.48c-5.31-2.23-10.67-4.21-16.05-5.92-18.8-6-39.49-9.17-59.84-9.17-32.11,0-64.05,7.85-92.37,22.7-.65.34-1.29.69-1.92,1.06-2.17,1.26-4.34,2.49-6.44,3.64-.02.01-.04.02-.06.03-26.18,14.38-54.12,25.21-83.02,32.18-.2.05-.4.1-.6.15-.78.2-1.58.38-2.37.57-8.9,2.07-18.05,3.81-27.19,5.15-.02,0-.05,0-.07.01-2.47.37-4.98.71-7.68,1.05-7.84.98-15.89,1.69-23.93,2.12-.02,0-.04,0-.07,0-6.07.33-12.27.5-18.43.5s-12.36-.17-18.47-.5c-86.49-4.62-167.2-41.73-227.25-104.51-60.24-62.97-93.73-145.64-94.28-232.79,0-.29,0-.57-.01-.86-.01-.46,0-.92,0-1.37v-.57c0-.94,0-1.87.02-2.8.05-5.58.24-11.18.57-16.67,0-.04,0-.07,0-.11.71-12.4,2.12-24.88,4.19-37.09,10.13-59.83,36.34-116.03,75.78-162.54,23.06-27.2,50.08-50.51,80.31-69.29,30.74-19.1,64.11-33.07,99.21-41.52,25.04-6.04,50.94-9.21,76.99-9.43.16,0,.32,0,.48,0,.61-.01,1.21-.01,1.82-.01.22,0,.43,0,.65,0s.43,0,.65,0M892.01,175.64c-1.12,0-2.24,0-3.36.02-30.4.25-59.96,3.98-88.31,10.82-81.67,19.67-153.33,65.04-205.93,127.08-44.25,52.18-75.02,116.15-86.94,186.53-2.36,13.94-3.98,28.15-4.81,42.56-.38,6.35-.6,12.75-.66,19.19,0,1.09-.02,2.18-.02,3.27v.57c0,.85,0,1.7.02,2.55,1.32,207.15,164.13,375.98,368.87,386.91,7,.38,14.05.57,21.14.57s14.14-.19,21.14-.57c9.25-.49,18.41-1.3,27.47-2.43,2.97-.37,5.92-.77,8.87-1.21,10.56-1.56,20.99-3.54,31.26-5.93,1.11-.26,2.22-.52,3.32-.8,33.71-8.14,65.7-20.68,95.35-36.96,2.54-1.39,5.07-2.82,7.58-4.28,20.67-10.84,44.19-16.98,69.15-16.98,21.54,0,37.86,4.64,44.64,6.8,3.9,1.25,12.2,4.08,22.14,9.14,10.37,5.28,17.66,10.49,20.3,12.43,8.58,6.3,14.4,12.09,18.06,15.75,1.28,1.28,4.79,4.83,9.02,9.73,1.97,2.28,4.55,5.28,7.65,9.51,1.63,2.22,2.94,4.15,3.89,5.6.07.07.13.14.2.21v-390.61c-.01-3.91-.07-7.81-.2-11.69-1.34-43.8-9.91-85.77-24.56-124.78-35.14-93.65-105.27-170.19-194.47-213.7-37.72-18.41-78.85-30.91-122.19-36.3-14.84-1.85-29.94-2.86-45.25-2.98-1.12-.02-2.24-.02-3.36-.02h0Z"/>
  </g>
  <g>
    <circle class="cls-3" cx="745.58" cy="527.79" r="56.91"/>
    <circle class="cls-3" cx="930.42" cy="527.79" r="56.91"/>
  </g>
  <g>
    <circle class="cls-4" cx="1254.48" cy="568.83" r="123.98" transform="translate(412.65 1659.06) rotate(-76.72)"/>
    <path class="cls-5" d="M1254.48,469.84c54.58,0,98.98,44.4,98.98,98.98s-44.4,98.98-98.98,98.98-98.98-44.4-98.98-98.98,44.4-98.98,98.98-98.98M1254.48,419.84c-82.28,0-148.98,66.7-148.98,148.98s66.7,148.98,148.98,148.98,148.98-66.7,148.98-148.98-66.7-148.98-148.98-148.98h0Z"/>
  </g>
  <path class="cls-2" d="M781.09,630.47c0,31.22,25.69,56.91,56.91,56.91s56.91-25.69,56.91-56.91"/>
</svg>
