<svg xmlns="http://www.w3.org/2000/svg" viewBox="0 0 780.06 780.36"><defs><style>.cls-1{fill:#fff;}</style></defs><g id="Layer_3" data-name="Layer 3"><circle class="cls-1" cx="631.08" cy="171" r="148.98"/><path class="cls-1" d="M536.76,409.46a56.24,56.24,0,0,1,12,1.29V113.25a395.9,395.9,0,0,0-48.61-3c-215.41,0-390,174.62-390,390s174.62,390,390,390a393.93,393.93,0,0,0,48.61-3V522a56.24,56.24,0,0,1-12,1.29,56.91,56.91,0,1,1,0-113.82ZM351.92,523.28a56.91,56.91,0,1,1,56.91-56.91A56.91,56.91,0,0,1,351.92,523.28Z" transform="translate(-110.17 -110.25)"/><path class="cls-1" d="M890.23,890.61V500H743A150.68,150.68,0,0,0,592.28,650.67q0,114.51,0,229a385.66,385.66,0,0,0,43.94-13.44c1-.37,18.31-6.85,35.25-15.14,8.09-4,15.81-8.19,16.29-8.45.79-.44,3.53-2.13,7.38-4.16,2-1.06,3.59-1.84,4.38-2.23.25-.12,5.12-2.47,10.32-4.51a167.14,167.14,0,0,1,21.27-6.56,151.16,151.16,0,0,1,34.85-3.73,149.46,149.46,0,0,1,124.29,69.16Z" transform="translate(-110.17 -110.25)"/></g></svg>